<svg xmlns="http://www.w3.org/2000/svg" xmlns:xlink="http://www.w3.org/1999/xlink" version="1.1" x="0px" y="0px" viewBox="0 0 32 32" style="enable-background:new 0 0 32 32;" xml:space="preserve"><title>USER INTERFACE</title><g><path d="M6.7,11.3c1.5,0,2.7-1,3.2-2.3h17.7c0.6,0,1-0.4,1-1s-0.4-1-1-1H9.9C9.5,5.6,8.2,4.6,6.7,4.6C4.9,4.6,3.4,6.1,3.4,8   S4.9,11.3,6.7,11.3z M6.7,6.6c0.7,0,1.3,0.6,1.3,1.3S7.5,9.3,6.7,9.3S5.4,8.7,5.4,8S6,6.6,6.7,6.6z"/><path d="M27.6,15H9.9c-0.4-1.3-1.7-2.3-3.2-2.3c-1.8,0-3.3,1.5-3.3,3.3c0,1.8,1.5,3.3,3.3,3.3c1.5,0,2.7-1,3.2-2.3h17.7   c0.6,0,1-0.4,1-1S28.2,15,27.6,15z M6.7,17.3c-0.7,0-1.3-0.6-1.3-1.3s0.6-1.3,1.3-1.3s1.3,0.6,1.3,1.3S7.5,17.3,6.7,17.3z"/><path d="M27.6,23H9.9c-0.4-1.3-1.7-2.3-3.2-2.3c-1.8,0-3.3,1.5-3.3,3.3s1.5,3.3,3.3,3.3c1.5,0,2.7-1,3.2-2.3h17.7c0.6,0,1-0.4,1-1   S28.2,23,27.6,23z M6.7,25.3c-0.7,0-1.3-0.6-1.3-1.3c0-0.7,0.6-1.3,1.3-1.3s1.3,0.6,1.3,1.3C8.1,24.8,7.5,25.3,6.7,25.3z"/></g></svg>