<svg xmlns="http://www.w3.org/2000/svg" viewBox="0 0 32 40" enable-background="new 0 0 32 32" x="0px" y="0px"><g><path d="M16 32c-8.822 0-16-7.178-16-16s7.178-16 16-16 16 7.178 16 16-7.178 16-16 16zm0-30c-7.72 0-14 6.28-14 14s6.28 14 14 14 14-6.28 14-14-6.28-14-14-14zM21 19c-.256 0-.512-.098-.707-.293l-4.293-4.293-4.293 4.293c-.391.391-1.023.391-1.414 0s-.391-1.023 0-1.414l5-5c.391-.391 1.023-.391 1.414 0l5 5c.391.391.391 1.023 0 1.414-.195.195-.451.293-.707.293zM16 25c-.552 0-1-.447-1-1v-11c0-.552.448-1 1-1s1 .448 1 1v11c0 .553-.448 1-1 1zM22 10h-12c-.552 0-1-.448-1-1s.448-1 1-1h12c.553 0 1 .448 1 1s-.447 1-1 1z"/></g><text x="0" y="47" fill="#000000" font-size="5px" font-weight="bold" font-family="'Helvetica Neue', Helvetica, Arial-Unicode, Arial, Sans-serif">Created by ✦ Shmidt Sergey ✦</text><text x="0" y="52" fill="#000000" font-size="5px" font-weight="bold" font-family="'Helvetica Neue', Helvetica, Arial-Unicode, Arial, Sans-serif">from the Noun Project</text></svg>